<svg width="500" height="500" viewBox="0 0 500 500" fill="none" xmlns="http://www.w3.org/2000/svg">
<g id="CircularText">
<path id="W" d="M238.239 468.062L242.473 491.319L240.067 490.967L236.118 469.078L237.321 469.254L227.053 489.066L224.9 488.751L220.824 466.843L221.964 467.01L211.854 486.844L209.606 486.516L220.317 465.443L222.787 465.804L226.703 486.589L226.07 486.496L235.801 467.706L238.239 468.062Z" fill="white"/>
<path id="e" d="M170.073 452.197C171.683 452.88 172.956 453.814 173.89 454.999C174.816 456.203 175.373 457.54 175.56 459.01C175.739 460.499 175.504 462.01 174.854 463.542C174.204 465.074 173.305 466.291 172.157 467.195C170.99 468.09 169.695 468.629 168.272 468.814C166.822 469.009 165.38 468.803 163.946 468.195C162.493 467.578 161.349 466.698 160.512 465.556C159.648 464.424 159.146 463.122 159.007 461.649C158.858 460.196 159.114 458.693 159.772 457.142C159.813 457.044 159.869 456.94 159.939 456.83C159.98 456.732 160.026 456.624 160.076 456.506L173.538 462.219L172.876 463.78L160.533 458.543L161.62 458.274C161.145 459.393 160.97 460.489 161.095 461.562C161.191 462.646 161.547 463.608 162.164 464.449C162.78 465.29 163.629 465.94 164.709 466.398C165.769 466.848 166.826 467.007 167.879 466.874C168.931 466.741 169.881 466.333 170.727 465.649C171.573 464.966 172.238 464.054 172.721 462.915L172.859 462.591C173.359 461.413 173.545 460.264 173.418 459.143C173.262 458.035 172.832 457.029 172.125 456.127C171.391 455.236 170.425 454.536 169.227 454.028C168.284 453.628 167.339 453.424 166.393 453.416C165.426 453.4 164.503 453.611 163.622 454.048L163.018 452.193C164.056 451.66 165.186 451.398 166.411 451.408C167.615 451.409 168.836 451.672 170.073 452.197Z" fill="white"/>
<path id="b" d="M131.081 432.088C132.293 432.923 133.195 433.945 133.786 435.155C134.365 436.383 134.573 437.718 134.409 439.159C134.245 440.601 133.649 442.068 132.621 443.562C131.58 445.073 130.422 446.153 129.146 446.802C127.84 447.457 126.517 447.724 125.175 447.603C123.834 447.482 122.566 447.011 121.371 446.188C120.053 445.28 119.082 444.171 118.457 442.859C117.802 441.553 117.539 440.168 117.667 438.702C117.796 437.236 118.344 435.801 119.312 434.395C120.268 433.007 121.414 431.983 122.749 431.322C124.073 430.68 125.467 430.423 126.932 430.551C128.38 430.668 129.763 431.18 131.081 432.088ZM138.132 437.139L124.665 456.694L122.794 455.405L129.546 445.601L131.733 442.989L133.472 440.068L136.34 435.904L138.132 437.139ZM130.069 433.839C129.085 433.161 128.056 432.776 126.98 432.682C125.893 432.607 124.842 432.816 123.829 433.309C122.803 433.821 121.921 434.612 121.183 435.684C120.433 436.773 120.008 437.879 119.908 439.002C119.809 440.125 119.994 441.172 120.465 442.144C120.923 443.133 121.644 443.967 122.628 444.644C123.612 445.322 124.656 445.705 125.762 445.793C126.837 445.886 127.882 445.686 128.895 445.192C129.891 444.686 130.764 443.889 131.514 442.799C132.252 441.728 132.686 440.628 132.815 439.499C132.915 438.376 132.736 437.32 132.277 436.331C131.789 435.347 131.053 434.516 130.069 433.839Z" fill="white"/>
<path id="/" d="M107.265 410.297L78.7011 424.586L77.208 423.138L105.772 408.849L107.265 410.297Z" fill="white"/>
<path id="B" d="M82.2675 389.713L64.0665 402.769L58.4342 394.916C56.9795 392.888 56.2617 391.027 56.2807 389.333C56.2872 387.622 57.0359 386.231 58.5266 385.162C59.5147 384.453 60.5146 384.09 61.5263 384.073C62.5256 384.039 63.4846 384.296 64.4032 384.845C65.3094 385.377 66.0982 386.11 66.7696 387.046L65.8285 387.052C64.9954 385.891 64.4625 384.763 64.2298 383.67C63.9672 382.572 64.0235 381.534 64.3985 380.556C64.7562 379.59 65.455 378.735 66.4951 377.988C68.0378 376.882 69.6442 376.596 71.3142 377.131C72.9717 377.648 74.6211 379.051 76.2623 381.339L82.2675 389.713ZM79.3013 388.926L74.6948 382.503C73.551 380.908 72.4058 379.879 71.2592 379.415C70.0952 378.963 68.9152 379.167 67.7192 380.025C66.5404 380.87 65.987 381.911 66.0589 383.145C66.1134 384.393 66.7126 385.814 67.8564 387.409L72.6122 394.04L71.0261 395.178L66.7179 389.171C65.6736 387.715 64.588 386.787 63.4614 386.387C62.3224 385.97 61.2068 386.154 60.1147 386.937C59.0053 387.733 58.4741 388.731 58.5211 389.931C58.5384 391.127 59.0692 392.452 60.1136 393.909L64.2725 399.707L79.3013 388.926Z" fill="white"/>
<path id="o" d="M52.3256 341.383C52.9641 342.873 53.2064 344.359 53.0522 345.841C52.8701 347.312 52.3378 348.642 51.4554 349.833C50.5534 351.032 49.3377 351.959 47.8082 352.614C46.2592 353.278 44.7493 353.519 43.2788 353.337C41.8082 353.155 40.4875 352.619 39.3167 351.728C38.1458 350.837 37.2369 349.637 36.5899 348.127C35.9346 346.597 35.6881 345.101 35.8507 343.639C36.0048 342.157 36.5273 340.831 37.4181 339.66C38.3005 338.469 39.5162 337.542 41.0653 336.878C42.5947 336.223 44.1045 335.982 45.5947 336.155C47.0569 336.318 48.3874 336.85 49.5862 337.752C50.7655 338.663 51.6786 339.873 52.3256 341.383ZM50.4726 342.177C49.9936 341.059 49.3242 340.174 48.4643 339.521C47.5848 338.877 46.589 338.503 45.477 338.399C44.3369 338.284 43.1688 338.483 41.9727 338.996C40.757 339.517 39.8074 340.226 39.1239 341.122C38.432 341.999 38.0258 342.974 37.9053 344.047C37.7652 345.128 37.9304 346.218 38.4009 347.316C38.8714 348.414 39.5465 349.285 40.426 349.929C41.2859 350.582 42.2761 350.97 43.3965 351.093C44.517 351.217 45.685 351.018 46.9007 350.497C48.0969 349.984 49.0465 349.275 49.7496 348.37C50.4331 347.474 50.8449 346.485 50.985 345.404C51.1055 344.331 50.9347 343.255 50.4726 342.177Z" fill="white"/>
<path id="t" d="M38.434 301.729C38.8001 303.264 38.6671 304.546 38.035 305.574C37.4028 306.602 36.3293 307.297 34.8145 307.658L19.4688 311.318L18.9419 309.108L34.163 305.478C35.1176 305.25 35.7974 304.836 36.2023 304.235C36.6024 303.613 36.6935 302.845 36.4758 301.932C36.2433 300.957 35.7702 300.215 35.0565 299.705L36.4585 298.548C36.9566 298.89 37.3733 299.35 37.7085 299.928C38.0388 300.485 38.2806 301.085 38.434 301.729ZM25.6137 312.945L23.7772 313.383L21.3652 303.266L23.2016 302.828L25.6137 312.945Z" fill="white"/>
<path id="D" d="M31.1772 252.214L8.83 250.677L9.45569 241.578C9.61961 239.194 10.2419 237.142 11.3226 235.42C12.3835 233.675 13.789 232.36 15.5391 231.476C17.2893 230.591 19.2604 230.224 21.4526 230.375C23.6447 230.526 25.5471 231.159 27.1596 232.275C28.7722 233.391 29.9952 234.887 30.8285 236.761C31.642 238.614 31.9668 240.732 31.8029 243.115L31.1772 252.214ZM29.2965 249.711L29.7509 243.102C29.887 241.123 29.6218 239.384 28.9551 237.884C28.2686 236.361 27.2721 235.148 25.9656 234.246C24.6379 233.342 23.0801 232.828 21.2923 232.706C19.4832 232.581 17.8698 232.876 16.4521 233.591C15.0344 234.307 13.8919 235.372 13.0247 236.788C12.1377 238.181 11.6262 239.867 11.4901 241.846L11.0356 248.455L29.2965 249.711Z" fill="white"/>
<path id="e_2" d="M39.5296 192.434C39.0296 194.11 38.243 195.478 37.1699 196.539C36.0763 197.593 34.8096 198.294 33.3696 198.644C31.9091 198.987 30.3816 198.921 28.7871 198.446C27.1925 197.97 25.8826 197.212 24.8572 196.171C23.838 195.11 23.1577 193.883 22.8163 192.49C22.4606 191.07 22.5053 189.614 22.9504 188.122C23.4017 186.609 24.1486 185.374 25.1912 184.416C26.2195 183.431 27.4578 182.788 28.9061 182.485C30.3339 182.177 31.8553 182.263 33.4702 182.745C33.5725 182.776 33.6818 182.819 33.7984 182.876C33.9006 182.907 34.0131 182.94 34.1357 182.977L29.9556 196.991L28.3304 196.506L32.1629 183.657L32.5508 184.708C31.3855 184.36 30.2769 184.308 29.225 184.551C28.1587 184.767 27.242 185.228 26.4748 185.934C25.7076 186.64 25.1563 187.556 24.821 188.68C24.4917 189.784 24.4515 190.852 24.7003 191.883C24.9492 192.915 25.4604 193.813 26.234 194.578C27.0076 195.343 27.9872 195.903 29.1729 196.256L29.5102 196.357C30.7368 196.723 31.8995 196.781 32.9984 196.53C34.083 196.252 35.0344 195.712 35.8525 194.91C36.6562 194.081 37.2441 193.043 37.6161 191.796C37.9088 190.815 38.0064 189.853 37.9088 188.911C37.8174 187.949 37.5054 187.055 36.9729 186.228L38.7493 185.422C39.3945 186.394 39.7803 187.488 39.9069 188.706C40.0396 189.903 39.9138 191.146 39.5296 192.434Z" fill="white"/>
<path id="v" d="M53.0075 155.438L34.6595 154.363L35.7449 152.258L52.7336 153.317L52.2202 154.312L41.5536 140.996L42.5803 139.005L54.0783 153.362L53.0075 155.438Z" fill="white"/>
<path id="e_3" d="M74.6824 119.705C73.6064 121.084 72.3757 122.072 70.9903 122.669C69.5881 123.253 68.1528 123.445 66.6844 123.246C65.1992 123.035 63.8006 122.417 62.4887 121.393C61.1768 120.37 60.2328 119.187 59.6566 117.844C59.0936 116.485 58.9067 115.094 59.0959 113.672C59.2814 112.221 59.8531 110.881 60.8109 109.653C61.7819 108.408 62.9273 107.53 64.2471 107.017C65.5632 106.474 66.9507 106.326 68.4097 106.571C69.8519 106.804 71.2373 107.438 72.566 108.475C72.6501 108.541 72.7361 108.621 72.8239 108.717C72.908 108.782 73.0005 108.855 73.1014 108.933L64.1066 120.464L62.7694 119.421L71.0163 108.849L70.995 109.969C70.0363 109.221 69.0229 108.768 67.9549 108.611C66.8831 108.424 65.8614 108.52 64.8898 108.898C63.9182 109.277 63.0716 109.929 62.3499 110.854C61.6413 111.762 61.2152 112.742 61.0714 113.793C60.9277 114.845 61.0768 115.867 61.5187 116.862C61.9607 117.856 62.6694 118.734 63.6449 119.495L63.9225 119.711C64.9316 120.499 65.9936 120.976 67.1085 121.142C68.2196 121.278 69.3022 121.122 70.3562 120.673C71.4065 120.193 72.3319 119.441 73.1323 118.414C73.7621 117.607 74.2031 116.747 74.4551 115.834C74.7203 114.905 74.7554 113.958 74.5604 112.994L76.5082 112.89C76.7553 114.03 76.7162 115.19 76.3908 116.37C76.0785 117.534 75.509 118.645 74.6824 119.705Z" fill="white"/>
<path id="l" d="M97.3145 93.5032L81.0114 76.2409L82.663 74.6807L98.9661 91.943L97.3145 93.5032Z" fill="white"/>
<path id="o_2" d="M121.087 73.4387C119.751 74.3565 118.341 74.8846 116.857 75.0232C115.38 75.1321 113.971 74.8703 112.631 74.2376C111.279 73.5874 110.132 72.5763 109.19 71.2044C108.236 69.815 107.705 68.3813 107.596 66.9034C107.487 65.4254 107.755 64.0252 108.4 62.7027C109.045 61.3802 110.044 60.254 111.398 59.3242C112.77 58.3824 114.189 57.8482 115.655 57.7216C117.138 57.5831 118.541 57.8361 119.863 58.4809C121.203 59.1135 122.35 60.1246 123.304 61.514C124.245 62.8859 124.777 64.3196 124.898 65.8151C125.024 67.281 124.762 68.69 124.112 70.0422C123.45 71.3768 122.441 72.5089 121.087 73.4387ZM119.946 71.7767C120.949 71.0884 121.686 70.2587 122.158 69.2877C122.618 68.2991 122.79 67.2493 122.674 66.1384C122.564 64.9978 122.141 63.891 121.404 62.8182C120.656 61.7277 119.775 60.9349 118.762 60.4398C117.767 59.9326 116.732 59.7249 115.656 59.8165C114.569 59.8905 113.532 60.2656 112.548 60.9418C111.563 61.618 110.84 62.4504 110.38 63.4391C109.908 64.4101 109.721 65.4571 109.82 66.5801C109.918 67.7031 110.341 68.8099 111.09 69.9003C111.826 70.9732 112.707 71.766 113.731 72.2787C114.744 72.7738 115.794 72.9843 116.882 72.9103C117.958 72.8187 118.979 72.4408 119.946 71.7767Z" fill="white"/>
<path id="p" d="M160.677 50.4149C159.338 50.9744 158 51.1753 156.663 51.0177C155.317 50.8404 154.077 50.3068 152.942 49.417C151.818 48.4993 150.903 47.194 150.195 45.5013C149.488 43.8085 149.206 42.2498 149.351 40.8252C149.487 39.3809 149.969 38.1274 150.797 37.0646C151.624 36.0019 152.717 35.1867 154.075 34.6189C155.551 34.0019 157.01 33.7852 158.451 33.969C159.903 34.1249 161.215 34.6633 162.386 35.5842C163.549 36.4855 164.455 37.7136 165.105 39.2686C165.763 40.8433 166.004 42.361 165.829 43.8217C165.653 45.2825 165.115 46.5943 164.213 47.7572C163.332 48.9119 162.153 49.7978 160.677 50.4149ZM155.008 59.3398L146.136 38.1112L148.143 37.272L150.093 41.937L151.182 45.1235L152.785 48.1297L157.104 58.4636L155.008 59.3398ZM159.752 48.6165C160.854 48.1558 161.735 47.4983 162.396 46.6442C163.048 45.7704 163.441 44.7738 163.574 43.6545C163.699 42.5154 163.511 41.3456 163.009 40.1449C162.507 38.9442 161.811 37.9981 160.921 37.3066C160.031 36.615 159.046 36.1944 157.966 36.0447C156.886 35.8949 155.795 36.0505 154.693 36.5112C153.59 36.972 152.703 37.6434 152.031 38.5254C151.379 39.3992 150.987 40.3958 150.853 41.5152C150.74 42.6263 150.934 43.7822 151.435 44.9829C151.937 46.1836 152.627 47.1436 153.506 47.8631C154.396 48.5546 155.381 48.9752 156.461 49.1249C157.553 49.2468 158.65 49.0773 159.752 48.6165Z" fill="white"/>
<path id="e_4" d="M202.42 36.5324C200.703 36.8698 199.126 36.8102 197.688 36.3536C196.247 35.876 195.036 35.0813 194.056 33.9693C193.073 32.8364 192.421 31.4536 192.1 29.8208C191.779 28.1881 191.84 26.6758 192.284 25.284C192.749 23.8882 193.519 22.715 194.593 21.7647C195.684 20.7892 196.994 20.1513 198.522 19.851C200.071 19.5465 201.512 19.6328 202.845 20.11C204.195 20.5621 205.341 21.3588 206.282 22.4999C207.22 23.6201 207.851 25.007 208.176 26.6607C208.197 26.7654 208.209 26.8826 208.213 27.0123C208.233 27.1169 208.256 27.2321 208.281 27.3577L193.931 30.1783L193.604 28.5142L206.76 25.9281L206.011 26.7603C205.776 25.5671 205.307 24.5614 204.602 23.7432C203.915 22.9 203.08 22.3031 202.098 21.9526C201.116 21.6021 200.049 21.54 198.898 21.7663C197.768 21.9885 196.804 22.4498 196.007 23.15C195.209 23.8503 194.652 24.7208 194.335 25.7615C194.018 26.8022 193.978 27.9297 194.217 29.1438L194.285 29.4892C194.532 30.7451 195.022 31.8011 195.755 32.657C196.506 33.4879 197.426 34.0788 198.517 34.4296C199.625 34.7555 200.817 34.7929 202.094 34.5419C203.099 34.3444 203.995 33.9833 204.783 33.4588C205.593 32.9301 206.239 32.2377 206.723 31.3816L208.263 32.5791C207.703 33.6023 206.914 34.4532 205.895 35.1318C204.897 35.8063 203.738 36.2731 202.42 36.5324Z" fill="white"/>
<path id="r" d="M236.873 31.4661L236.417 14.6723L238.592 14.6132L238.717 19.1875L238.471 18.3939C238.905 17.1016 239.668 16.1099 240.759 15.4186C241.849 14.7061 243.216 14.3275 244.858 14.2828L244.918 16.49C244.832 16.4923 244.747 16.4947 244.662 16.497C244.576 16.478 244.49 16.4696 244.405 16.4719C242.635 16.5201 241.264 17.1015 240.291 18.2164C239.317 19.3099 238.858 20.8483 238.912 22.8316L239.145 31.4044L236.873 31.4661Z" fill="white"/>
<path id="." d="M290.713 35.1756C290.253 35.0833 289.889 34.8362 289.622 34.4344C289.375 34.0368 289.3 33.5975 289.397 33.1164C289.497 32.6144 289.736 32.238 290.113 31.9871C290.51 31.7405 290.939 31.6634 291.399 31.7557C291.86 31.848 292.215 32.0825 292.466 32.4592C292.738 32.8401 292.823 33.2815 292.722 33.7835C292.626 34.2646 292.377 34.6389 291.975 34.9065C291.594 35.1782 291.174 35.2679 290.713 35.1756Z" fill="white"/>
<path id="U" d="M342.196 51.6838C339.652 50.3801 338.024 48.6226 337.311 46.4115C336.598 44.2003 336.976 41.6613 338.445 38.7944L344.297 27.3742L346.404 28.4541L340.596 39.7889C339.39 42.1432 339.032 44.1529 339.521 45.818C340.01 47.483 341.223 48.8118 343.159 49.8042C345.115 50.8064 346.911 51.0198 348.548 50.4444C350.185 49.8691 351.607 48.4043 352.813 46.05L358.621 34.7152L360.671 35.766L354.82 47.1863C353.351 50.0532 351.511 51.843 349.3 52.5558C347.108 53.2783 344.74 52.9876 342.196 51.6838Z" fill="white"/>
<path id="i" d="M378.487 73.0131L388.63 59.6201L390.441 60.992L380.299 74.3849L378.487 73.0131ZM391.789 57.3565C391.415 57.0731 391.197 56.7073 391.135 56.2589C391.073 55.8106 391.177 55.4079 391.448 55.0507C391.718 54.6936 392.071 54.4926 392.507 54.4477C392.955 54.3858 393.366 54.4966 393.74 54.7799C394.114 55.0633 394.339 55.4207 394.414 55.852C394.488 56.2833 394.391 56.6775 394.12 57.0347C393.837 57.4088 393.471 57.6268 393.023 57.6887C392.591 57.7635 392.18 57.6528 391.789 57.3565Z" fill="white"/>
<path id="/_2" d="M391.869 87.5943L420.356 73.1514L421.857 74.5915L393.37 89.0344L391.869 87.5943Z" fill="white"/>
<path id="U_2" d="M422.172 115.483C420.503 113.162 419.855 110.856 420.229 108.563C420.603 106.27 422.097 104.183 424.712 102.301L435.127 94.8058L436.51 96.728L426.173 104.167C424.026 105.712 422.79 107.337 422.466 109.042C422.142 110.747 422.616 112.483 423.887 114.249C425.17 116.033 426.671 117.042 428.39 117.277C430.11 117.511 432.043 116.856 434.19 115.311L444.528 107.872L445.873 109.742L435.458 117.237C432.843 119.119 430.389 119.873 428.097 119.499C425.817 119.142 423.842 117.803 422.172 115.483Z" fill="white"/>
<path id="X" d="M444.332 148.968L459.353 152.555L457.674 153.269L465.155 140.694L466.22 143.196L459.997 153.741L459.554 152.782L471.496 155.592L472.499 157.948L458.436 154.649L459.967 153.997L452.127 167.282L451.05 164.75L457.703 153.5L458.092 154.413L445.397 151.471L444.332 148.968Z" fill="white"/>
<path id="D_2" d="M466.367 216.507L488.714 214.969L489.34 224.068C489.504 226.452 489.169 228.57 488.334 230.424C487.522 232.298 486.31 233.792 484.697 234.908C483.084 236.024 481.182 236.657 478.99 236.808C476.798 236.959 474.827 236.592 473.076 235.707C471.326 234.823 469.91 233.509 468.828 231.766C467.769 230.042 467.157 227.989 466.993 225.605L466.367 216.507ZM468.573 218.728L469.027 225.337C469.163 227.316 469.664 229.003 470.53 230.398C471.419 231.812 472.572 232.877 473.989 233.592C475.428 234.305 477.042 234.601 478.83 234.478C480.639 234.353 482.196 233.84 483.503 232.937C484.809 232.035 485.795 230.823 486.46 229.302C487.148 227.801 487.424 226.06 487.288 224.081L486.834 217.472L468.573 218.728Z" fill="white"/>
<path id="e_5" d="M466.276 276.867C466.542 275.138 467.134 273.675 468.052 272.478C468.991 271.284 470.15 270.416 471.528 269.872C472.928 269.332 474.45 269.189 476.095 269.441C477.74 269.694 479.141 270.266 480.299 271.156C481.454 272.068 482.296 273.19 482.825 274.523C483.372 275.881 483.527 277.329 483.29 278.869C483.05 280.429 482.479 281.755 481.578 282.847C480.694 283.963 479.555 284.77 478.162 285.268C476.79 285.769 475.271 285.891 473.605 285.635C473.5 285.619 473.385 285.591 473.262 285.55C473.157 285.534 473.041 285.516 472.914 285.497L475.137 271.042L476.813 271.3L474.775 284.552L474.247 283.565C475.449 283.75 476.554 283.65 477.563 283.265C478.59 282.905 479.435 282.323 480.098 281.518C480.761 280.714 481.182 279.732 481.361 278.572C481.536 277.433 481.429 276.37 481.042 275.382C480.654 274.395 480.024 273.575 479.153 272.923C478.282 272.271 477.235 271.851 476.012 271.663L475.665 271.609C474.399 271.415 473.24 271.517 472.186 271.916C471.149 272.339 470.281 273.004 469.58 273.911C468.897 274.842 468.457 275.951 468.259 277.237C468.104 278.249 468.139 279.215 468.364 280.135C468.586 281.075 469.018 281.919 469.659 282.665L468.009 283.706C467.237 282.832 466.705 281.8 466.413 280.612C466.118 279.444 466.072 278.196 466.276 276.867Z" fill="white"/>
<path id="s" d="M457.763 315.382C458.214 314.07 458.822 312.892 459.588 311.847C460.373 310.808 461.163 310.053 461.956 309.582L463.318 311.133C462.612 311.612 461.904 312.294 461.194 313.177C460.505 314.068 459.969 315.068 459.588 316.178C459.067 317.691 458.925 318.86 459.16 319.686C459.415 320.518 459.937 321.069 460.723 321.34C461.308 321.541 461.828 321.505 462.283 321.233C462.751 320.988 463.169 320.59 463.539 320.041C463.928 319.498 464.312 318.874 464.689 318.169C465.067 317.464 465.465 316.766 465.883 316.075C466.294 315.405 466.755 314.819 467.265 314.317C467.796 313.823 468.4 313.478 469.076 313.282C469.746 313.106 470.535 313.174 471.442 313.486C472.31 313.785 473.003 314.294 473.523 315.014C474.042 315.734 474.334 316.624 474.399 317.683C474.476 318.77 474.283 319.99 473.818 321.341C473.464 322.37 472.969 323.351 472.333 324.283C471.717 325.221 471.073 325.947 470.4 326.46L468.998 324.929C469.725 324.39 470.328 323.751 470.807 323.013C471.306 322.283 471.695 321.514 471.972 320.707C472.464 319.274 472.576 318.128 472.308 317.269C472.052 316.437 471.541 315.889 470.775 315.625C470.17 315.417 469.633 315.436 469.165 315.681C468.691 315.947 468.248 316.347 467.839 316.883C467.442 317.446 467.058 318.07 466.688 318.755C466.31 319.459 465.906 320.144 465.474 320.808C465.056 321.499 464.592 322.095 464.081 322.596C463.584 323.124 463.001 323.476 462.331 323.652C461.675 323.855 460.913 323.807 460.045 323.509C459.117 323.19 458.4 322.65 457.895 321.89C457.402 321.157 457.135 320.23 457.091 319.11C457.061 318.016 457.285 316.774 457.763 315.382Z" fill="white"/>
<path id="i_2" d="M446.564 343.945L461.565 351.509L460.542 353.538L445.541 345.974L446.564 343.945ZM464.361 354.209C464.572 353.79 464.893 353.509 465.323 353.368C465.752 353.226 466.167 353.256 466.567 353.458C466.967 353.66 467.229 353.97 467.351 354.391C467.493 354.82 467.458 355.245 467.247 355.664C467.036 356.083 466.725 356.368 466.314 356.52C465.903 356.671 465.498 356.646 465.098 356.444C464.679 356.233 464.398 355.912 464.257 355.482C464.105 355.072 464.14 354.647 464.361 354.209Z" fill="white"/>
<path id="g" d="M425.806 367.574C426.706 366.329 427.75 365.268 428.938 364.389C430.126 363.511 431.314 362.961 432.5 362.74L433.225 364.686C432.193 364.913 431.174 365.375 430.171 366.071C429.138 366.772 428.24 367.649 427.477 368.704C426.227 370.432 425.715 371.997 425.94 373.397C426.147 374.785 427.098 376.091 428.792 377.316L432.189 379.773L434.335 381.72L436.8 383.226L440.922 386.208L439.647 387.971L427.694 379.326C425.343 377.626 424.042 375.803 423.79 373.857C423.509 371.916 424.181 369.821 425.806 367.574ZM431.728 371.344C432.666 370.047 433.786 369.081 435.089 368.443C436.41 367.819 437.79 367.566 439.23 367.687C440.658 367.824 442.02 368.361 443.316 369.299C444.613 370.237 445.541 371.356 446.101 372.656C446.666 373.986 446.851 375.37 446.654 376.807C446.457 378.245 445.89 379.612 444.952 380.908C444.077 382.118 443.039 383.026 441.838 383.632C440.636 384.237 439.337 384.469 437.939 384.327C436.541 384.185 435.133 383.601 433.716 382.576C432.299 381.551 431.303 380.396 430.731 379.113C430.158 377.83 429.962 376.517 430.144 375.174C430.325 373.831 430.853 372.554 431.728 371.344ZM433.231 372.707C432.506 373.71 432.069 374.75 431.922 375.828C431.791 376.918 431.935 377.957 432.353 378.944C432.789 379.944 433.499 380.8 434.485 381.513C435.47 382.225 436.497 382.626 437.565 382.714C438.633 382.802 439.656 382.607 440.634 382.129C441.628 381.664 442.488 380.93 443.213 379.927C443.926 378.942 444.353 377.895 444.496 376.787C444.644 375.709 444.509 374.677 444.09 373.69C443.66 372.72 442.952 371.879 441.966 371.166C440.981 370.454 439.952 370.038 438.879 369.92C437.81 369.832 436.779 370.021 435.784 370.486C434.794 370.981 433.943 371.722 433.231 372.707Z" fill="white"/>
<path id="n" d="M411.958 419.82C410.945 420.736 409.88 421.339 408.763 421.631C407.644 421.952 406.514 421.91 405.371 421.505C404.213 421.114 403.09 420.318 402.003 419.115L395.458 411.875L397.143 410.351L403.538 417.425C404.725 418.738 405.952 419.427 407.217 419.491C408.481 419.585 409.706 419.095 410.893 418.022C411.779 417.221 412.39 416.338 412.726 415.373C413.06 414.438 413.101 413.466 412.85 412.456C412.597 411.477 412.042 410.512 411.183 409.563L405.26 403.011L406.946 401.487L418.212 413.95L416.598 415.409L413.508 411.991L414.348 412.396C414.768 413.655 414.772 414.932 414.359 416.225C413.961 417.535 413.161 418.733 411.958 419.82Z" fill="white"/>
<path id="e_6" d="M365.66 434.166C367.166 433.277 368.673 432.809 370.181 432.761C371.699 432.731 373.105 433.078 374.399 433.801C375.703 434.542 376.778 435.629 377.624 437.062C378.47 438.495 378.915 439.942 378.959 441.402C378.985 442.873 378.65 444.235 377.953 445.489C377.249 446.772 376.226 447.809 374.885 448.601C373.526 449.403 372.138 449.802 370.722 449.795C369.299 449.818 367.953 449.448 366.686 448.685C365.429 447.941 364.372 446.843 363.515 445.391C363.461 445.299 363.411 445.193 363.364 445.072C363.31 444.98 363.25 444.879 363.185 444.769L375.778 437.334L376.64 438.795L365.094 445.611L365.524 444.577C366.142 445.624 366.92 446.416 367.856 446.954C368.785 447.52 369.771 447.805 370.813 447.809C371.856 447.813 372.882 447.516 373.893 446.92C374.885 446.334 375.64 445.579 376.159 444.653C376.678 443.727 376.914 442.721 376.867 441.634C376.82 440.547 376.482 439.471 375.853 438.405L375.674 438.102C375.023 437 374.21 436.167 373.233 435.604C372.249 435.07 371.185 434.819 370.039 434.851C368.887 434.912 367.75 435.274 366.629 435.935C365.747 436.456 365.022 437.095 364.453 437.852C363.866 438.619 363.486 439.487 363.315 440.456L361.464 439.839C361.652 438.688 362.113 437.623 362.848 436.644C363.565 435.675 364.502 434.85 365.66 434.166Z" fill="white"/>
<path id="r_2" d="M334.854 450.409L340.871 466.094L338.84 466.874L337.201 462.601L337.696 463.268C337.717 464.631 337.327 465.82 336.529 466.835C335.737 467.87 334.575 468.682 333.041 469.27L332.25 467.208C332.33 467.178 332.41 467.147 332.489 467.117C332.577 467.106 332.66 467.086 332.74 467.055C334.393 466.421 335.493 465.416 336.039 464.041C336.593 462.686 336.515 461.082 335.805 459.23L332.733 451.223L334.854 450.409Z" fill="white"/>
<path id="._2" d="M282.847 464.826C283.312 464.76 283.737 464.872 284.123 465.162C284.488 465.455 284.705 465.844 284.774 466.33C284.846 466.837 284.746 467.271 284.475 467.633C284.182 467.998 283.803 468.213 283.338 468.279C282.874 468.345 282.46 468.243 282.098 467.971C281.716 467.702 281.488 467.314 281.416 466.807C281.347 466.321 281.457 465.886 281.747 465.5C282.016 465.117 282.383 464.892 282.847 464.826Z" fill="white"/>
</g>
</svg>
